<?xml version="1.0" standalone="no"?>
<!DOCTYPE svg PUBLIC "-//W3C//DTD SVG 20010904//EN"
 "http://www.w3.org/TR/2001/REC-SVG-20010904/DTD/svg10.dtd">
<svg version="1.0" xmlns="http://www.w3.org/2000/svg"
 width="512.000000pt" height="512.000000pt" viewBox="0 0 512.000000 512.000000"
 preserveAspectRatio="xMidYMid meet">

<g transform="translate(0.000000,512.000000) scale(0.100000,-0.100000)"
fill="#000000" stroke="none">
<path d="M1368 4599 c-86 -20 -168 -98 -193 -183 -23 -75 -22 -3637 0 -3713
19 -63 77 -130 141 -163 l49 -25 1200 0 1200 0 46 21 c57 27 115 85 143 144
l21 45 0 1835 c0 1703 -1 1838 -17 1872 -29 64 -79 117 -137 146 l-56 27
-1180 2 c-662 0 -1196 -3 -1217 -8z m1789 -1022 c180 -67 233 -290 101 -427
-67 -68 -193 -95 -279 -58 -170 73 -211 296 -79 426 63 60 179 87 257 59z
m-997 -1553 c87 -37 150 -136 150 -236 0 -136 -101 -243 -241 -255 -46 -5 -66
-1 -111 19 -97 45 -148 114 -156 214 -6 78 15 139 66 196 75 82 186 106 292
62z m1025 2 c17 -8 48 -28 69 -46 106 -93 114 -256 18 -362 -54 -60 -104 -82
-187 -83 -291 -1 -358 399 -83 497 57 20 125 18 183 -6z"/>
</g>
</svg>
